<?xml version="1.0" encoding="utf-8"?>
<!-- Generator: Adobe Illustrator 25.4.1, SVG Export Plug-In . SVG Version: 6.00 Build 0)  -->
<svg version="1.1" id="Layer_1" xmlns="http://www.w3.org/2000/svg" xmlns:xlink="http://www.w3.org/1999/xlink" x="0px" y="0px"
	 viewBox="0 0 441.1 265.6" style="enable-background:new 0 0 441.1 265.6;" xml:space="preserve">
<style type="text/css">
	.st0{fill-rule:evenodd;clip-rule:evenodd;fill:#FFFFFF;fill-opacity:0;}
	.st1{fill-rule:evenodd;clip-rule:evenodd;fill:#0A357E;}
	.st2{fill-rule:evenodd;clip-rule:evenodd;fill:#FD000D;}
</style>
<polygon class="st0" points="0,0 441.1,0 441.1,265.6 0,265.6 "/>
<path class="st1" d="M440,10.3c-12.9-22-80.8-7.7-165.5,31.1c4.3,3.3,8.6,7.2,12,11c65-27.7,115.3-36.3,125.8-18.2
	c12,20.6-35.4,71.7-111.4,122.4l1,1C394.6,97.4,454.4,35.2,440,10.3L440,10.3L440,10.3z"/>
<path class="st1" d="M39.3,249.5c-7.2-12.9,8.1-37.3,38.7-66.5l0,0c-2.4-0.5-4.8-1.4-7.2-2.4c-0.5,0-0.5-0.5-0.5-0.5
	c-2.4-1-4.8-1.9-7.2-2.9c-36.8,33.9-55.5,62.6-46.9,78c10.5,17.7,56,12,116.7-10.5l-0.5-1C83.7,260.5,47.9,263.8,39.3,249.5
	L39.3,249.5L39.3,249.5z"/>
<path class="st2" d="M1,100.7C1,48.6,69.9,6,154.5,6c85.1,0,154,42.6,154,94.7c0,52.6-68.9,95.2-154,95.2
	C69.9,195.9,1,153.3,1,100.7L1,100.7L1,100.7L1,100.7z M88,27.1l29.2,99l0,0l30.6-111.9C126.3,15.1,105.7,19.4,88,27.1L88,27.1
	L88,27.1L88,27.1z M146.4,68.2l-15.8,57.9h32L146.4,68.2L146.4,68.2L146.4,68.2z M191.8,126.1l27.7-99.9
	c-18.2-7.2-38.7-11.5-60.3-12L191.8,126.1L191.8,126.1L191.8,126.1L191.8,126.1z M87.6,126.1L71.8,68.2L56,126.1H87.6L87.6,126.1
	L87.6,126.1z M269.8,137.6c7.7-11,12-23.4,12-36.8c0-25.3-15.8-47.8-41.6-64.1L269.8,137.6L269.8,137.6L269.8,137.6z M237.2,126.1
	L221,68.2l-15.8,57.9H237.2L237.2,126.1L237.2,126.1z M240.6,137.6h-38.7l-3.3,12.4l9.1,29.6c14.8-4.3,28.2-11,39.2-19.1
	L240.6,137.6L240.6,137.6L240.6,137.6z M102.4,179.6l-11.5-42.1H52.6l-3.3,12c13.4,13.4,31.6,23.9,53.1,30.6L102.4,179.6
	L102.4,179.6L102.4,179.6z M166,137.6h-38.7l-12.4,45.9c12.4,2.9,25.8,4.3,39.7,4.3c8.6,0,16.7-0.5,24.9-1.9L166,137.6L166,137.6
	L166,137.6z M66.5,38.6c-23.9,15.8-38.7,37.8-38.7,62.2c0,13.4,4.3,25.3,11.5,36.3L66.5,38.6L66.5,38.6z"/>
</svg>
